<?xml version="1.0" standalone="no"?>
<!DOCTYPE svg PUBLIC "-//W3C//DTD SVG 20010904//EN"
 "http://www.w3.org/TR/2001/REC-SVG-20010904/DTD/svg10.dtd">
<svg version="1.0" xmlns="http://www.w3.org/2000/svg"
 width="560.000000pt" height="560.000000pt" viewBox="0 0 560.000000 560.000000"
 preserveAspectRatio="xMidYMid meet">
<metadata>
Created by potrace 1.14, written by Peter Selinger 2001-2017
</metadata>
<g transform="translate(0.000000,560.000000) scale(0.100000,-0.100000)"
fill="#000000" stroke="none">
<path d="M0 2800 l0 -2800 2800 0 2800 0 0 2800 0 2800 -2800 0 -2800 0 0
-2800z m1418 1991 c91 -46 148 -148 140 -250 -4 -58 -9 -68 -75 -160 -17 -23
-16 -24 15 -52 36 -33 94 -39 128 -15 30 22 27 162 -5 235 -60 140 15 271 155
271 133 0 198 -114 145 -254 -16 -44 -21 -79 -21 -156 0 -99 0 -100 26 -106
34 -9 134 14 140 31 3 7 -6 31 -21 53 -81 122 -70 259 28 356 57 57 104 76
185 76 127 0 218 -38 407 -169 297 -206 416 -283 517 -336 93 -47 116 -55 163
-55 51 0 55 -2 55 -24 0 -30 -71 -111 -119 -135 -20 -11 -59 -22 -86 -26 -28
-4 -70 -16 -95 -27 -25 -12 -79 -24 -120 -28 -41 -4 -94 -15 -117 -24 -24 -9
-119 -23 -215 -31 -95 -9 -178 -17 -184 -19 -6 -3 -25 -29 -42 -59 -17 -30
-49 -70 -72 -89 l-41 -36 198 -4 c169 -4 208 -8 268 -28 124 -39 203 -87 295
-180 94 -94 142 -173 181 -300 33 -106 33 -274 0 -380 -36 -119 -88 -206 -171
-292 l-75 -78 75 -78 c83 -86 135 -173 171 -292 33 -106 33 -274 0 -380 -39
-127 -87 -206 -181 -300 -92 -92 -169 -140 -295 -181 -67 -22 -85 -23 -450
-26 -350 -3 -383 -5 -415 -22 -19 -11 -52 -22 -72 -26 l-38 -7 -1 -72 c-1
-154 -24 -220 -60 -176 -12 13 -19 50 -24 125 l-7 106 -47 23 c-59 30 -107 79
-123 125 -7 20 -12 68 -13 106 0 56 5 80 25 117 l24 47 -32 38 c-61 71 -77
117 -77 223 0 83 3 99 23 127 12 17 22 35 22 40 0 5 -27 44 -59 86 -79 103
-93 143 -95 264 -1 91 1 102 28 151 16 29 44 69 61 89 l31 37 -49 65 c-83 109
-90 134 -91 296 -1 135 0 142 28 197 16 32 39 67 52 79 13 13 24 26 24 31 0 5
-28 35 -63 68 -84 78 -128 163 -135 259 -2 40 0 83 7 102 11 32 10 34 -38 81
-31 30 -59 71 -77 113 -21 48 -33 64 -44 60 -66 -26 -100 -29 -153 -12 -30 9
-74 17 -98 17 -25 0 -69 7 -99 16 -30 8 -92 24 -137 35 -45 10 -109 32 -141
49 -33 16 -73 30 -90 30 -17 0 -55 9 -85 20 -57 21 -144 88 -130 100 4 3 28
12 53 19 118 33 283 129 645 374 112 77 223 146 247 154 100 34 242 32 316 -6z
m2322 -1591 l0 -560 490 0 490 0 0 560 0 560 140 0 140 0 0 -1260 0 -1260
-140 0 -140 0 0 560 0 560 -490 0 -490 0 0 -560 0 -560 -140 0 -140 0 0 1260
0 1260 140 0 140 0 0 -560z"/>
<path d="M1183 4780 c-67 -14 -191 -84 -372 -208 -213 -148 -349 -231 -483
-296 -60 -28 -108 -54 -108 -57 0 -10 51 -30 94 -35 58 -8 156 19 246 68 127
69 332 209 387 264 48 48 54 51 63 34 5 -10 10 -35 10 -55 0 -48 21 -95 64
-143 44 -48 93 -73 164 -83 59 -8 73 -16 53 -28 -17 -11 -5 -72 23 -113 27
-41 89 -83 144 -99 47 -13 148 -7 166 11 6 6 12 59 14 121 l4 110 -49 -6 c-26
-3 -57 -8 -69 -10 -30 -6 -124 95 -124 134 0 6 20 33 45 61 49 55 70 113 62
174 -7 47 -63 110 -122 137 -49 22 -154 31 -212 19z"/>
<path d="M2169 4780 c-42 -12 -89 -52 -115 -96 -45 -77 -26 -178 51 -263 l38
-42 -30 -36 c-53 -66 -77 -78 -154 -77 l-69 1 0 -108 0 -108 55 -11 c142 -30
300 68 300 186 0 39 2 43 29 48 16 3 48 6 73 6 112 0 206 103 207 226 0 71 11
74 45 14 26 -47 104 -117 227 -206 192 -139 368 -194 464 -146 52 25 50 46 -7
67 -138 51 -273 133 -667 405 -107 74 -185 115 -255 137 -48 14 -150 16 -192
3z"/>
<path d="M1715 4770 c-11 -4 -33 -22 -50 -40 -25 -26 -30 -39 -30 -81 0 -47 3
-53 48 -96 46 -43 51 -45 93 -39 25 3 54 11 65 17 57 30 79 141 37 194 -36 46
-111 67 -163 45z m145 -57 c17 -21 20 -36 16 -63 -7 -43 -55 -90 -93 -90 l-27
0 31 31 c36 34 49 78 33 109 -11 21 -6 40 10 40 5 0 18 -12 30 -27z"/>
<path d="M1684 4010 c4 -254 11 -471 16 -484 6 -16 22 -27 54 -36 26 -7 49
-10 52 -7 6 6 15 230 30 738 l7 236 -48 6 c-26 4 -64 7 -83 7 l-35 0 7 -460z"/>
<path d="M840 4369 c-158 -122 -313 -219 -349 -219 -21 0 -11 -21 15 -30 53
-21 119 -12 191 26 66 34 289 179 298 193 4 7 -41 112 -47 111 -2 -1 -50 -37
-108 -81z"/>
<path d="M2585 4381 c-12 -57 48 -126 193 -222 93 -61 166 -86 240 -81 36 3
27 36 -15 56 -51 24 -211 135 -306 213 -43 35 -84 63 -92 63 -7 0 -16 -13 -20
-29z"/>
<path d="M955 4263 c-58 -53 -188 -150 -234 -175 -43 -24 -31 -38 33 -38 67 0
138 35 260 127 l89 67 -38 33 c-21 18 -43 33 -49 33 -6 -1 -33 -21 -61 -47z"/>
<path d="M2494 4257 l-28 -24 22 -31 c23 -32 125 -113 177 -139 35 -19 175
-31 175 -15 0 5 -33 30 -72 55 -40 25 -106 75 -146 111 -40 36 -79 66 -87 66
-8 0 -26 -11 -41 -23z"/>
<path d="M1036 4143 c-57 -54 -104 -104 -105 -110 -2 -20 68 -15 118 8 49 22
143 98 168 136 14 21 14 26 2 38 -8 7 -29 16 -47 20 -31 6 -38 1 -136 -92z"/>
<path d="M2338 4219 c-35 -20 -21 -58 45 -124 52 -52 74 -67 121 -80 88 -26
112 -7 51 39 -19 14 -55 54 -81 89 -26 34 -54 68 -62 75 -19 14 -50 15 -74 1z"/>
<path d="M1196 4079 c-25 -28 -46 -56 -46 -61 0 -27 37 -82 85 -127 56 -53 75
-60 94 -37 6 7 39 26 73 41 54 24 69 27 127 21 36 -3 78 -9 94 -12 25 -6 27
-4 27 23 l0 30 -98 5 c-84 4 -106 9 -152 34 -29 16 -74 52 -99 81 -25 29 -49
53 -53 53 -3 0 -27 -23 -52 -51z"/>
<path d="M2216 4046 c-79 -63 -120 -76 -240 -76 l-86 0 0 -28 c0 -16 2 -31 5
-34 3 -3 34 0 68 8 95 19 165 2 259 -67 37 -26 41 -27 63 -13 34 22 115 123
115 143 0 15 -97 121 -111 121 -3 0 -36 -24 -73 -54z"/>
<path d="M1941 3887 c-47 -16 -59 -38 -41 -73 23 -42 55 -57 125 -58 51 -1 68
3 87 20 48 43 52 42 45 -15 -12 -101 -99 -202 -223 -261 -37 -17 -64 -36 -62
-43 2 -7 34 -27 72 -46 l68 -35 44 23 c104 56 184 180 192 299 l5 73 -54 52
c-75 73 -167 96 -258 64z m129 -26 c0 -13 -34 -23 -54 -15 -28 11 -18 24 19
24 19 0 35 -4 35 -9z"/>
<path d="M1421 3868 c-133 -51 -184 -172 -125 -298 44 -95 98 -135 364 -270
251 -127 281 -149 299 -218 17 -64 -20 -162 -83 -221 -36 -34 -33 -56 12 -86
66 -43 89 -42 154 9 76 60 119 146 126 249 6 99 -8 141 -73 220 -48 58 -68 73
-153 116 -53 26 -152 67 -220 90 -256 86 -342 158 -342 284 0 52 9 57 47 27
53 -41 158 -18 199 44 23 36 13 51 -40 65 -63 16 -103 13 -165 -11z m109 -18
c0 -5 -6 -10 -12 -10 -7 0 -23 -3 -35 -6 -17 -5 -23 -2 -23 10 0 12 9 16 35
16 19 0 35 -4 35 -10z"/>
<path d="M1880 3699 l0 -71 28 6 c15 3 38 9 52 12 32 9 23 -1 -37 -40 -46 -30
-66 -67 -46 -86 19 -19 183 91 183 123 0 13 -60 57 -77 57 -6 0 -32 16 -57 35
l-46 35 0 -71z"/>
<path d="M1619 3741 c-13 -10 -44 -28 -69 -41 l-44 -23 68 -34 c37 -19 70 -32
73 -29 11 10 16 146 6 146 -6 0 -21 -8 -34 -19z"/>
<path d="M1482 3639 c7 -21 98 -87 136 -100 74 -24 51 21 -34 67 -75 41 -108
51 -102 33z"/>
<path d="M2220 3473 c0 -4 -27 -38 -60 -75 -33 -36 -60 -69 -60 -72 0 -4 21
-32 47 -64 80 -99 104 -187 83 -318 -15 -96 -43 -149 -118 -222 -41 -41 -61
-67 -54 -74 6 -6 127 -8 319 -6 l309 3 75 37 c93 46 158 112 202 206 30 62 32
75 32 172 0 102 -1 109 -37 181 -46 93 -112 158 -206 202 l-67 32 -232 3
c-128 2 -233 0 -233 -5z"/>
<path d="M1441 3265 c-63 -72 -75 -110 -76 -225 0 -96 3 -110 29 -165 41 -83
139 -178 251 -242 210 -120 265 -173 265 -255 0 -31 -33 -110 -62 -150 -17
-23 -4 -44 50 -82 37 -26 44 -28 70 -17 81 34 143 141 150 263 4 69 2 84 -23
133 -15 31 -38 69 -51 85 -33 39 -132 107 -278 192 -67 38 -132 79 -144 91
-45 42 -66 96 -67 173 0 63 3 75 29 109 22 28 27 42 19 54 -10 17 -100 70
-119 71 -7 0 -26 -16 -43 -35z"/>
<path d="M1704 3166 c-3 -7 -1 -76 4 -152 9 -124 12 -140 32 -156 52 -42 60
-22 60 155 l0 127 -32 20 c-39 23 -57 25 -64 6z"/>
<path d="M1625 3086 c-20 -46 -19 -72 5 -123 31 -69 41 -55 38 54 -3 107 -18
130 -43 69z"/>
<path d="M1857 3051 c-6 -47 3 -141 14 -141 16 0 41 50 42 84 2 71 -47 121
-56 57z"/>
<path d="M1478 2603 c-9 -10 -26 -38 -39 -63 -34 -64 -33 -199 0 -285 31 -78
122 -169 228 -227 90 -49 155 -105 173 -149 11 -25 10 -38 -4 -81 -19 -59 -20
-75 -5 -117 15 -43 48 -41 100 6 62 56 83 105 83 188 0 115 -54 187 -224 298
-47 30 -105 76 -129 101 -41 42 -45 51 -49 105 -3 48 0 69 17 101 11 22 21 45
21 50 0 10 -130 90 -147 90 -5 0 -17 -8 -25 -17z"/>
<path d="M1721 2377 c3 -77 8 -119 18 -130 37 -46 56 3 49 129 -3 65 -7 79
-27 95 -13 10 -28 19 -33 19 -6 0 -9 -42 -7 -113z"/>
<path d="M1670 2369 c0 -24 4 -38 10 -34 6 3 10 22 10 41 0 19 -4 34 -10 34
-5 0 -10 -18 -10 -41z"/>
<path d="M1840 2338 c0 -32 3 -39 10 -28 13 20 13 70 0 70 -5 0 -10 -19 -10
-42z"/>
<path d="M2170 2320 c0 -57 -32 -115 -106 -188 -58 -57 -79 -92 -55 -92 5 0
22 -26 38 -57 53 -109 35 -222 -53 -336 l-45 -57 21 -36 22 -35 347 3 347 3
75 37 c93 46 158 112 202 206 30 62 32 75 32 172 0 102 -1 109 -37 181 -46 93
-112 158 -206 202 l-67 32 -257 3 -258 3 0 -41z"/>
<path d="M1522 1987 c-7 -7 -16 -37 -23 -65 -29 -137 51 -254 238 -346 83 -41
147 -108 156 -161 3 -20 2 -61 -3 -92 -5 -31 -8 -58 -6 -61 2 -2 16 12 30 31
28 37 56 107 56 141 -1 58 -73 150 -175 224 -108 78 -145 134 -145 223 l0 66
-49 26 c-55 31 -64 32 -79 14z"/>
<path d="M1734 1875 c-10 -25 2 -134 17 -151 21 -26 32 10 24 81 -7 66 -29
103 -41 70z"/>
<path d="M1690 1846 c0 -22 3 -27 11 -19 8 8 8 16 0 30 -9 16 -10 14 -11 -11z"/>
<path d="M1571 1532 c-34 -49 -24 -175 19 -232 l19 -25 -2 81 c-2 75 0 84 27
123 34 48 28 74 -16 79 -19 2 -31 -5 -47 -26z"/>
<path d="M1742 1345 c0 -71 4 -179 8 -240 6 -94 7 -79 8 110 0 121 -3 229 -8
240 -5 12 -8 -29 -8 -110z"/>
<path d="M1669 1433 c-8 -14 -14 -44 -14 -67 0 -47 32 -139 46 -130 10 6 12
166 3 202 -8 29 -17 28 -35 -5z"/>
<path d="M1817 1424 c-11 -12 -8 -184 3 -184 19 0 32 54 28 113 -4 55 -17 85
-31 71z"/>
</g>
</svg>
